<?xml version="1.0" encoding="UTF-8" standalone="no"?>
<!-- Created with Inkscape (http://www.inkscape.org/) -->

<svg
   xmlns:dc="http://purl.org/dc/elements/1.1/"
   xmlns:cc="http://creativecommons.org/ns#"
   xmlns:rdf="http://www.w3.org/1999/02/22-rdf-syntax-ns#"
   xmlns:svg="http://www.w3.org/2000/svg"
   xmlns="http://www.w3.org/2000/svg"
   xmlns:sodipodi="http://sodipodi.sourceforge.net/DTD/sodipodi-0.dtd"
   xmlns:inkscape="http://www.inkscape.org/namespaces/inkscape"
   width="210mm"
   height="297mm"
   viewBox="0 0 210 297"
   version="1.1"
   id="svg8"
   inkscape:version="0.92.4 (5da689c313, 2019-01-14)"
   sodipodi:docname="icons.svg">
  <defs
     id="defs2" />
  <sodipodi:namedview
     id="base"
     pagecolor="#ffffff"
     bordercolor="#666666"
     borderopacity="1.0"
     inkscape:pageopacity="0.0"
     inkscape:pageshadow="2"
     inkscape:zoom="0.7"
     inkscape:cx="139.03161"
     inkscape:cy="525.94996"
     inkscape:document-units="mm"
     inkscape:current-layer="layer1"
     showgrid="false"
     inkscape:window-width="1920"
     inkscape:window-height="1017"
     inkscape:window-x="-8"
     inkscape:window-y="-8"
     inkscape:window-maximized="1" />
  <metadata
     id="metadata5">
    <rdf:RDF>
      <cc:Work
         rdf:about="">
        <dc:format>image/svg+xml</dc:format>
        <dc:type
           rdf:resource="http://purl.org/dc/dcmitype/StillImage" />
        <dc:title />
      </cc:Work>
    </rdf:RDF>
  </metadata>
  <g
     inkscape:label="Layer 1"
     inkscape:groupmode="layer"
     id="layer1">
    <rect
       style="opacity:0;stroke:none;stroke-width:0.75681823"
       y="365.40323"
       x="91.789345"
       height="120"
       width="120"
       id="rect4677"
       inkscape:export-xdpi="96"
       inkscape:export-ydpi="96" />
    <rect
       id="rect4538"
       width="120"
       height="120"
       x="-164.85649"
       y="300.01334"
       style="stroke:none;stroke-width:0.75681823;opacity:0.075"
       inkscape:export-xdpi="96"
       inkscape:export-ydpi="96" />
    <rect
       id="rect3713"
       width="10"
       height="10"
       x="22.717911"
       y="86.013313"
       style="stroke-width:0.06306818;stroke:none" />
    <rect
       style="stroke:none;stroke-width:0.06306818"
       y="86.013313"
       x="32.717911"
       height="10"
       width="10"
       id="rect4520" />
    <rect
       id="rect4522"
       width="10"
       height="10"
       x="22.717911"
       y="96.013313"
       style="stroke:none;stroke-width:0.06306818" />
    <rect
       id="rect4524"
       width="10"
       height="10"
       x="62.717911"
       y="86.013313"
       style="stroke:none;stroke-width:0.06306818" />
    <rect
       id="rect4526"
       width="10"
       height="10"
       x="52.717911"
       y="86.013313"
       style="stroke:none;stroke-width:0.06306818" />
    <rect
       style="stroke:none;stroke-width:0.06306818"
       y="86.013313"
       x="92.717911"
       height="10"
       width="10"
       id="rect4528" />
    <rect
       style="stroke:none;stroke-width:0.06306818"
       y="86.013313"
       x="82.717911"
       height="10"
       width="10"
       id="rect4530" />
    <rect
       id="rect4532"
       width="10"
       height="10"
       x="92.717911"
       y="96.013313"
       style="stroke:none;stroke-width:0.06306818" />
    <rect
       style="stroke:none;stroke-width:0.06306818"
       y="156.01332"
       x="92.717911"
       height="10"
       width="10"
       id="rect4540" />
    <rect
       style="stroke:none;stroke-width:0.06306818"
       y="146.01332"
       x="92.717911"
       height="10"
       width="10"
       id="rect4542" />
    <path
       style="stroke:none;stroke-width:0.14102474"
       d="m 39.678003,184.26401 v 10.00043 H 9.6782843 v 9.99991 H 79.678144 v -9.99991 H 49.678424 V 184.26401 Z M 9.6782843,214.26427 v 59.99993 9.99993 H 19.67819 79.678144 v -9.99993 -59.99993 h -9.99991 V 274.2642 H 19.67819 v -59.99993 z m 19.9998117,0 v 50.00003 h 9.999907 v -50.00003 z m 20.000328,0 v 50.00003 h 9.999909 v -50.00003 z"
       id="rect4551"
       inkscape:connector-curvature="0"
       inkscape:export-xdpi="96"
       inkscape:export-ydpi="96" />
    <g
       id="g4599"
       transform="translate(0,10.56904)"
       inkscape:export-xdpi="96"
       inkscape:export-ydpi="96">
      <path
         inkscape:connector-curvature="0"
         id="rect4534"
         d="m 165.69996,213.69505 v 10.00042 9.99991 h 9.99991 v -9.99991 -10.00042 z"
         style="stroke:none;stroke-width:0.06306818" />
      <path
         id="rect4571"
         transform="scale(0.26458333)"
         d="m 437.29102,694.28125 v 113.38477 h 37.79687 v -75.58985 h 37.79492 v -37.79492 h -37.79492 z"
         style="stroke:none;stroke-width:0.23836793"
         inkscape:connector-curvature="0" />
      <path
         id="rect4577"
         transform="scale(0.26458333)"
         d="m 550.67773,694.28125 v 37.79492 h 75.58985 v 37.79492 h 37.79492 v -37.79492 -37.79492 z"
         style="stroke:none;stroke-width:0.41286534"
         inkscape:connector-curvature="0" />
      <path
         inkscape:connector-curvature="0"
         style="stroke:none;stroke-width:0.10923728"
         d="m 175.69987,243.69537 h -9.99991 v 19.99981 h -9.9999 v 9.99991 h 9.9999 9.99991 z"
         id="path4583" />
      <path
         id="path4585"
         d="m 145.70006,273.69509 v -9.99991 h -19.99981 v -9.9999 h -9.99991 v 9.9999 9.99991 z"
         style="stroke:none;stroke-width:0.10923728"
         inkscape:connector-curvature="0" />
      <path
         style="stroke:none;stroke-width:0.06306818"
         d="m 115.70034,223.69495 v 10.00042 9.99991 h 9.99991 v -9.99991 -10.00042 z"
         id="path4588"
         inkscape:connector-curvature="0" />
    </g>
    <rect
       id="rect4590"
       width="10"
       height="120"
       x="1.5477058"
       y="220.05882"
       style="stroke:none;stroke-width:0.21847458"
       transform="rotate(-30)"
       inkscape:export-xdpi="96"
       inkscape:export-ydpi="96" />
    <g
       id="g4666"
       transform="translate(-143.48715,-18.551303)">
      <path
         id="rect4549"
         transform="scale(0.26458333)"
         d="m 13.722656,1336.3086 v 37.7949 226.7715 37.7949 H 51.517578 278.28906 v -37.7949 -226.7715 -37.7949 h -37.79492 v 37.7949 226.7715 H 51.517578 v -226.7715 -37.7949 z"
         style="stroke:none;stroke-width:0.23836793"
         inkscape:connector-curvature="0" />
      <path
         id="rect4575"
         transform="scale(0.26458333)"
         d="m 89.3125,1336.3086 v 37.7949 188.9766 h 37.79492 v -188.9766 -37.7949 z"
         style="stroke:none;stroke-width:0.23836793"
         inkscape:connector-curvature="0" />
      <path
         inkscape:connector-curvature="0"
         id="path4653"
         d="m 33.630384,323.56454 v 10.00043 H 3.6306652 v 9.99991 H 73.630525 v -9.99991 h -29.99972 v -10.00043 z"
         style="stroke:none;stroke-width:0.14102474" />
      <path
         id="path4601"
         transform="scale(0.26458333)"
         d="m 164.9043,1336.3086 v 37.7949 188.9766 h 37.79492 v -188.9766 -37.7949 z"
         style="stroke:none;stroke-width:0.53300691"
         inkscape:connector-curvature="0" />
    </g>
    <rect
       inkscape:export-ydpi="96"
       inkscape:export-xdpi="96"
       transform="rotate(-30)"
       style="stroke:none;stroke-width:0.21847458"
       y="220.05882"
       x="1.5477058"
       height="120"
       width="10"
       id="rect4603" />
    <g
       id="g4645"
       transform="translate(10.625164,41.374132)">
      <g
         id="g4635">
        <path
           inkscape:connector-curvature="0"
           id="path4605"
           d="m 161.16425,369.02897 v 10.00042 9.99991 h 9.99991 v -9.99991 -10.00042 z"
           style="stroke:none;stroke-width:0.06306818" />
        <path
           id="path4607"
           d="m 111.1642,339.02917 v 29.99972 h 10.00042 v -19.99982 h 9.99991 v -9.9999 h -9.99991 z"
           style="stroke:none;stroke-width:0.06306818"
           inkscape:connector-curvature="0" />
        <path
           id="path4609"
           d="m 141.16443,339.02917 v 9.9999 h 19.99982 v 9.99991 h 9.9999 v -9.99991 -9.9999 z"
           style="stroke:none;stroke-width:0.10923728"
           inkscape:connector-curvature="0" />
        <path
           inkscape:connector-curvature="0"
           style="stroke:none;stroke-width:0.10923728"
           d="m 171.16416,399.02929 h -9.99991 v 19.99981 h -9.9999 v 9.99991 h 9.9999 9.99991 z"
           id="path4611" />
        <path
           id="path4613"
           d="m 141.16435,429.02901 v -9.99991 h -19.99981 v -9.9999 h -9.99991 v 9.9999 9.99991 z"
           style="stroke:none;stroke-width:0.10923728"
           inkscape:connector-curvature="0" />
        <path
           style="stroke:none;stroke-width:0.06306818"
           d="m 111.16463,379.02887 v 10.00042 9.99991 h 9.99991 v -9.99991 -10.00042 z"
           id="path4615"
           inkscape:connector-curvature="0" />
      </g>
      <rect
         transform="rotate(-29)"
         inkscape:export-ydpi="96"
         inkscape:export-xdpi="96"
         style="stroke:none;stroke-width:0.21847458"
         y="344.31717"
         x="-67.716026"
         height="120"
         width="10"
         id="rect4621" />
    </g>
    <path
       style="stroke:none;stroke-width:0.06306818"
       d="m -86.820613,115.51113 -7.071,7.07101 7.071,7.071 -7.071,7.071 7.071,7.071 7.071,-7.071 7.071005,-7.071 -7.071005,-7.071 z"
       id="rect862"
       inkscape:connector-curvature="0" />
    <path
       inkscape:connector-curvature="0"
       id="path869"
       d="m -88.710494,155.57661 -7.070999,7.07101 7.070999,7.071 -7.070999,7.071 7.070999,7.071 7.071,-7.071 7.071005,-7.071 -7.071005,-7.071 z"
       style="stroke:none;stroke-width:0.06306818;fill:#ffd700;fill-opacity:1"
       inkscape:export-xdpi="96"
       inkscape:export-ydpi="96" />
  </g>
</svg>
