<?xml version="1.0" encoding="UTF-8" standalone="no"?>
<!-- Created with Inkscape (http://www.inkscape.org/) -->

<svg
   xmlns:dc="http://purl.org/dc/elements/1.1/"
   xmlns:cc="http://creativecommons.org/ns#"
   xmlns:rdf="http://www.w3.org/1999/02/22-rdf-syntax-ns#"
   xmlns:svg="http://www.w3.org/2000/svg"
   xmlns="http://www.w3.org/2000/svg"
   xmlns:sodipodi="http://sodipodi.sourceforge.net/DTD/sodipodi-0.dtd"
   xmlns:inkscape="http://www.inkscape.org/namespaces/inkscape"
   width="210mm"
   height="297mm"
   viewBox="0 0 210 297"
   version="1.1"
   id="svg8"
   inkscape:version="0.92.4 (5da689c313, 2019-01-14)"
   sodipodi:docname="logo.svg">
  <defs
     id="defs2" />
  <sodipodi:namedview
     id="base"
     pagecolor="#ffffff"
     bordercolor="#666666"
     borderopacity="1.0"
     inkscape:pageopacity="0.0"
     inkscape:pageshadow="2"
     inkscape:zoom="3.959798"
     inkscape:cx="168.15796"
     inkscape:cy="668.65268"
     inkscape:document-units="mm"
     inkscape:current-layer="layer1"
     showgrid="false"
     inkscape:window-width="1920"
     inkscape:window-height="1017"
     inkscape:window-x="-8"
     inkscape:window-y="-8"
     inkscape:window-maximized="1" />
  <metadata
     id="metadata5">
    <rdf:RDF>
      <cc:Work
         rdf:about="">
        <dc:format>image/svg+xml</dc:format>
        <dc:type
           rdf:resource="http://purl.org/dc/dcmitype/StillImage" />
        <dc:title></dc:title>
      </cc:Work>
    </rdf:RDF>
  </metadata>
  <g
     inkscape:label="Layer 1"
     inkscape:groupmode="layer"
     id="layer1">
    <g
       id="g843">
      <text
         transform="rotate(90)"
         id="text825"
         y="-33.802341"
         x="95.203842"
         style="font-style:normal;font-weight:normal;font-size:27.4346962px;line-height:1.25;font-family:sans-serif;letter-spacing:0px;word-spacing:0px;fill:#000000;fill-opacity:1;stroke:none;stroke-width:0.68586737"
         xml:space="preserve"><tspan
           style="font-style:normal;font-variant:normal;font-weight:normal;font-stretch:normal;font-family:gew;-inkscape-font-specification:gew;stroke-width:0.68586737"
           y="-33.802341"
           x="95.203842"
           id="tspan823"
           sodipodi:role="line">R</tspan></text>
      <text
         id="text817"
         y="106.58778"
         x="34.815445"
         style="font-style:normal;font-weight:normal;font-size:10.58333302px;line-height:1.25;font-family:sans-serif;letter-spacing:0px;word-spacing:0px;fill:#000000;fill-opacity:1;stroke:none;stroke-width:0.26458332"
         xml:space="preserve"><tspan
           style="font-style:normal;font-variant:normal;font-weight:bold;font-stretch:normal;font-family:Georgia;-inkscape-font-specification:'Georgia Bold';stroke-width:0.26458332"
           y="106.58778"
           x="34.815445"
           id="tspan815"
           sodipodi:role="line">c</tspan></text>
      <text
         xml:space="preserve"
         style="font-style:normal;font-weight:normal;font-size:10.58333302px;line-height:1.25;font-family:sans-serif;letter-spacing:0px;word-spacing:0px;fill:#000000;fill-opacity:1;stroke:none;stroke-width:0.26458332"
         x="44.815445"
         y="106.58778"
         id="text829"><tspan
           sodipodi:role="line"
           id="tspan827"
           x="44.815445"
           y="106.58778"
           style="font-style:normal;font-variant:normal;font-weight:bold;font-stretch:normal;font-family:Georgia;-inkscape-font-specification:'Georgia Bold';stroke-width:0.26458332">c</tspan></text>
    </g>
    <rect
       style="opacity:1;fill:#ffd700;fill-opacity:1;stroke:none;stroke-width:0.2883583;stroke-opacity:1"
       id="rect831"
       width="10"
       height="2.6058779"
       x="33.802341"
       y="95.290527" />
    <rect
       y="95.811707"
       x="43.802341"
       height="2.0847023"
       width="8"
       id="rect833"
       style="opacity:1;fill:#ffd700;fill-opacity:1;stroke:none;stroke-width:0.23068663;stroke-opacity:1" />
    <rect
       style="opacity:1;fill:#ffd700;fill-opacity:1;stroke:none;stroke-width:0.23068663;stroke-opacity:1"
       id="rect835"
       width="8"
       height="2.0847023"
       x="33.802341"
       y="93.205826" />
    <g
       id="g882"
       inkscape:export-filename="C:\ws\reader\src\main\resources\static\logo.png"
       inkscape:export-xdpi="251.73083"
       inkscape:export-ydpi="251.73083">
      <g
         id="text847"
         style="font-style:normal;font-weight:normal;font-size:27.4346962px;line-height:1.25;font-family:sans-serif;letter-spacing:0px;word-spacing:0px;fill:#000000;fill-opacity:1;stroke:#ffffff;stroke-width:0.2;stroke-opacity:1;stroke-miterlimit:4;stroke-dasharray:none"
         transform="rotate(90)"
         aria-label="R">
        <path
           id="path865"
           style="font-style:normal;font-variant:normal;font-weight:normal;font-stretch:normal;font-family:gew;-inkscape-font-specification:gew;stroke-width:0.2;stroke:#ffffff;stroke-opacity:1;stroke-miterlimit:4;stroke-dasharray:none"
           d="m 131.3681,-42.377627 q 0.87073,0.294708 1.68788,1.259209 0.83054,0.964501 1.66108,2.652378 l 2.74615,5.465506 h -2.9069 l -2.5586,-5.13061 q -0.9913,-2.009377 -1.92901,-2.665773 -0.92431,-0.656397 -2.53181,-0.656397 h -2.94709 v 8.45278 h -2.70596 v -20.000001 h 6.10851 q 3.42934,0 5.11721,1.433356 1.68788,1.433356 1.68788,4.326859 0,1.888814 -0.88413,3.134628 -0.87073,1.245814 -2.54521,1.728065 z m -6.7783,-8.399197 v 7.099799 h 3.40255 q 1.95579,0 2.94709,-0.897522 1.00468,-0.910917 1.00468,-2.665773 0,-1.754856 -1.00468,-2.638982 -0.9913,-0.897522 -2.94709,-0.897522 z" />
      </g>
      <g
         id="text851"
         style="font-style:normal;font-weight:normal;font-size:10.58333302px;line-height:1.25;font-family:sans-serif;letter-spacing:0px;word-spacing:0px;fill:#000000;fill-opacity:1;stroke:#ffffff;stroke-width:0.2;stroke-opacity:1;stroke-miterlimit:4;stroke-dasharray:none"
         aria-label="c">
        <path
           id="path868"
           style="font-style:normal;font-variant:normal;font-weight:bold;font-stretch:normal;font-family:Georgia;-inkscape-font-specification:'Georgia Bold';stroke-width:0.2;stroke:#ffffff;stroke-opacity:1;stroke-miterlimit:4;stroke-dasharray:none"
           d="m 37.264085,130.74059 q -0.718302,0 -1.27124,-0.20671 -0.54777,-0.21187 -0.904338,-0.5736 -0.356567,-0.36691 -0.532267,-0.86817 -0.1757,-0.50126 -0.1757,-1.09037 0,-0.53744 0.211874,-1.02319 0.217041,-0.48576 0.583943,-0.85266 0.377238,-0.37724 0.935344,-0.59945 0.563273,-0.22738 1.240234,-0.22738 0.950846,0 1.503784,0.36174 0.552938,0.35656 0.552938,0.96635 0,0.37207 -0.196371,0.59944 -0.19637,0.22738 -0.676961,0.22738 -0.387573,0 -0.651123,-0.18604 -0.258382,-0.18603 -0.258382,-0.48575 0,-0.25322 0.08268,-0.50127 0.08268,-0.24804 0.09819,-0.37723 -0.05685,-0.093 -0.144694,-0.13953 -0.08785,-0.0517 -0.273886,-0.0517 -0.232543,0 -0.423746,0.10852 -0.191203,0.10852 -0.356568,0.38241 -0.160197,0.25838 -0.258382,0.69246 -0.09302,0.43409 -0.09302,1.04387 0,0.91984 0.428914,1.48311 0.434082,0.56327 1.033529,0.56327 0.573608,0 0.909505,-0.25321 0.341064,-0.25838 0.604614,-0.72864 l 0.387573,0.26872 q -0.160197,0.31523 -0.382405,0.57878 -0.222209,0.25838 -0.532268,0.45992 -0.325561,0.21187 -0.661458,0.32039 -0.335897,0.10852 -0.780314,0.10852 z" />
      </g>
      <g
         id="text855"
         style="font-style:normal;font-weight:normal;font-size:10.58333302px;line-height:1.25;font-family:sans-serif;letter-spacing:0px;word-spacing:0px;fill:#000000;fill-opacity:1;stroke:#ffffff;stroke-width:0.2;stroke-opacity:1;stroke-miterlimit:4;stroke-dasharray:none"
         aria-label="c">
        <path
           id="path871"
           style="font-style:normal;font-variant:normal;font-weight:bold;font-stretch:normal;font-family:Georgia;-inkscape-font-specification:'Georgia Bold';stroke-width:0.2;stroke:#ffffff;stroke-opacity:1;stroke-miterlimit:4;stroke-dasharray:none"
           d="m 47.264085,130.74059 q -0.718302,0 -1.27124,-0.20671 -0.54777,-0.21187 -0.904338,-0.5736 -0.356567,-0.36691 -0.532267,-0.86817 -0.1757,-0.50126 -0.1757,-1.09037 0,-0.53744 0.211874,-1.02319 0.217041,-0.48576 0.583943,-0.85266 0.377238,-0.37724 0.935344,-0.59945 0.563273,-0.22738 1.240234,-0.22738 0.950846,0 1.503784,0.36174 0.552938,0.35656 0.552938,0.96635 0,0.37207 -0.196371,0.59944 -0.19637,0.22738 -0.676961,0.22738 -0.387573,0 -0.651123,-0.18604 -0.258382,-0.18603 -0.258382,-0.48575 0,-0.25322 0.08268,-0.50127 0.08268,-0.24804 0.09819,-0.37723 -0.05685,-0.093 -0.144694,-0.13953 -0.08785,-0.0517 -0.273886,-0.0517 -0.232543,0 -0.423746,0.10852 -0.191203,0.10852 -0.356568,0.38241 -0.160197,0.25838 -0.258382,0.69246 -0.09302,0.43409 -0.09302,1.04387 0,0.91984 0.428914,1.48311 0.434082,0.56327 1.033529,0.56327 0.573608,0 0.909505,-0.25321 0.341064,-0.25838 0.604614,-0.72864 l 0.387573,0.26872 q -0.160197,0.31523 -0.382405,0.57878 -0.222209,0.25838 -0.532268,0.45992 -0.325561,0.21187 -0.661458,0.32039 -0.335897,0.10852 -0.780314,0.10852 z" />
      </g>
    </g>
    <g
       id="g886"
       style="font-style:normal;font-weight:normal;font-size:27.4346962px;line-height:1.25;font-family:sans-serif;letter-spacing:0px;word-spacing:0px;fill:#ffd700;fill-opacity:1;stroke:none;stroke-width:0.2;stroke-miterlimit:4;stroke-dasharray:none;stroke-opacity:1"
       transform="rotate(90,15.100728,14.098468)"
       aria-label="R"
       inkscape:export-filename="C:\ws\reader\src\main\resources\static\gold_logo.png"
       inkscape:export-xdpi="251.73083"
       inkscape:export-ydpi="251.73083">
      <path
         inkscape:connector-curvature="0"
         id="path884"
         style="font-style:normal;font-variant:normal;font-weight:normal;font-stretch:normal;font-family:gew;-inkscape-font-specification:gew;stroke:none;stroke-width:0.2;stroke-miterlimit:4;stroke-dasharray:none;stroke-opacity:1;fill:#ffd700;fill-opacity:1"
         d="m 131.3681,-42.377627 q 0.87073,0.294708 1.68788,1.259209 0.83054,0.964501 1.66108,2.652378 l 2.74615,5.465506 h -2.9069 l -2.5586,-5.13061 q -0.9913,-2.009377 -1.92901,-2.665773 -0.92431,-0.656397 -2.53181,-0.656397 h -2.94709 v 8.45278 h -2.70596 v -20.000001 h 6.10851 q 3.42934,0 5.11721,1.433356 1.68788,1.433356 1.68788,4.326859 0,1.888814 -0.88413,3.134628 -0.87073,1.245814 -2.54521,1.728065 z m -6.7783,-8.399197 v 7.099799 h 3.40255 q 1.95579,0 2.94709,-0.897522 1.00468,-0.910917 1.00468,-2.665773 0,-1.754856 -1.00468,-2.638982 -0.9913,-0.897522 -2.94709,-0.897522 z" />
    </g>
    <g
       id="g890"
       style="font-style:normal;font-weight:normal;font-size:10.58333302px;line-height:1.25;font-family:sans-serif;letter-spacing:0px;word-spacing:0px;fill:#ffd700;fill-opacity:1;stroke:none;stroke-width:0.2;stroke-miterlimit:4;stroke-dasharray:none;stroke-opacity:1"
       aria-label="c"
       transform="translate(29.199196,-1.0022607)"
       inkscape:export-filename="C:\ws\reader\src\main\resources\static\gold_logo.png"
       inkscape:export-xdpi="251.73083"
       inkscape:export-ydpi="251.73083">
      <path
         inkscape:connector-curvature="0"
         id="path888"
         style="font-style:normal;font-variant:normal;font-weight:bold;font-stretch:normal;font-family:Georgia;-inkscape-font-specification:'Georgia Bold';stroke:none;stroke-width:0.2;stroke-miterlimit:4;stroke-dasharray:none;stroke-opacity:1;fill:#ffd700;fill-opacity:1"
         d="m 37.264085,130.74059 q -0.718302,0 -1.27124,-0.20671 -0.54777,-0.21187 -0.904338,-0.5736 -0.356567,-0.36691 -0.532267,-0.86817 -0.1757,-0.50126 -0.1757,-1.09037 0,-0.53744 0.211874,-1.02319 0.217041,-0.48576 0.583943,-0.85266 0.377238,-0.37724 0.935344,-0.59945 0.563273,-0.22738 1.240234,-0.22738 0.950846,0 1.503784,0.36174 0.552938,0.35656 0.552938,0.96635 0,0.37207 -0.196371,0.59944 -0.19637,0.22738 -0.676961,0.22738 -0.387573,0 -0.651123,-0.18604 -0.258382,-0.18603 -0.258382,-0.48575 0,-0.25322 0.08268,-0.50127 0.08268,-0.24804 0.09819,-0.37723 -0.05685,-0.093 -0.144694,-0.13953 -0.08785,-0.0517 -0.273886,-0.0517 -0.232543,0 -0.423746,0.10852 -0.191203,0.10852 -0.356568,0.38241 -0.160197,0.25838 -0.258382,0.69246 -0.09302,0.43409 -0.09302,1.04387 0,0.91984 0.428914,1.48311 0.434082,0.56327 1.033529,0.56327 0.573608,0 0.909505,-0.25321 0.341064,-0.25838 0.604614,-0.72864 l 0.387573,0.26872 q -0.160197,0.31523 -0.382405,0.57878 -0.222209,0.25838 -0.532268,0.45992 -0.325561,0.21187 -0.661458,0.32039 -0.335897,0.10852 -0.780314,0.10852 z" />
    </g>
    <g
       id="g894"
       style="font-style:normal;font-weight:normal;font-size:10.58333302px;line-height:1.25;font-family:sans-serif;letter-spacing:0px;word-spacing:0px;fill:#ffd700;fill-opacity:1;stroke:none;stroke-width:0.2;stroke-miterlimit:4;stroke-dasharray:none;stroke-opacity:1"
       aria-label="c"
       transform="translate(29.199196,-1.0022607)"
       inkscape:export-filename="C:\ws\reader\src\main\resources\static\gold_logo.png"
       inkscape:export-xdpi="251.73083"
       inkscape:export-ydpi="251.73083">
      <path
         inkscape:connector-curvature="0"
         id="path892"
         style="font-style:normal;font-variant:normal;font-weight:bold;font-stretch:normal;font-family:Georgia;-inkscape-font-specification:'Georgia Bold';stroke:none;stroke-width:0.2;stroke-miterlimit:4;stroke-dasharray:none;stroke-opacity:1;fill:#ffd700;fill-opacity:1"
         d="m 47.264085,130.74059 q -0.718302,0 -1.27124,-0.20671 -0.54777,-0.21187 -0.904338,-0.5736 -0.356567,-0.36691 -0.532267,-0.86817 -0.1757,-0.50126 -0.1757,-1.09037 0,-0.53744 0.211874,-1.02319 0.217041,-0.48576 0.583943,-0.85266 0.377238,-0.37724 0.935344,-0.59945 0.563273,-0.22738 1.240234,-0.22738 0.950846,0 1.503784,0.36174 0.552938,0.35656 0.552938,0.96635 0,0.37207 -0.196371,0.59944 -0.19637,0.22738 -0.676961,0.22738 -0.387573,0 -0.651123,-0.18604 -0.258382,-0.18603 -0.258382,-0.48575 0,-0.25322 0.08268,-0.50127 0.08268,-0.24804 0.09819,-0.37723 -0.05685,-0.093 -0.144694,-0.13953 -0.08785,-0.0517 -0.273886,-0.0517 -0.232543,0 -0.423746,0.10852 -0.191203,0.10852 -0.356568,0.38241 -0.160197,0.25838 -0.258382,0.69246 -0.09302,0.43409 -0.09302,1.04387 0,0.91984 0.428914,1.48311 0.434082,0.56327 1.033529,0.56327 0.573608,0 0.909505,-0.25321 0.341064,-0.25838 0.604614,-0.72864 l 0.387573,0.26872 q -0.160197,0.31523 -0.382405,0.57878 -0.222209,0.25838 -0.532268,0.45992 -0.325561,0.21187 -0.661458,0.32039 -0.335897,0.10852 -0.780314,0.10852 z" />
    </g>
  </g>
</svg>
