<?xml version="1.0" encoding="UTF-8" standalone="no"?>
<!-- Created with Inkscape (http://www.inkscape.org/) -->

<svg
   width="210mm"
   height="297mm"
   viewBox="0 0 210 297"
   version="1.1"
   id="svg971"
   xmlns="http://www.w3.org/2000/svg"
   xmlns:svg="http://www.w3.org/2000/svg">
  <defs
     id="defs968" />
  <g
     id="layer1">
    <rect
       style="fill:#000000;fill-opacity:0.145985;stroke:none;stroke-width:0.999996;stroke-linecap:round"
       id="c_right_center_guide"
       width="8"
       height="12"
       x="10.000001"
       y="0" />
    <rect
       style="fill:#000000;fill-opacity:0.145985;stroke:none;stroke-width:0.999999;stroke-linecap:round"
       id="c_left_center_guide"
       width="10"
       height="12"
       x="0"
       y="0" />
    <path
       id="path_c_left"
       style="font-style:normal;font-variant:normal;font-weight:bold;font-stretch:normal;font-family:Georgia;-inkscape-font-specification:'Georgia Bold';fill:#ffd700;fill-opacity:1;stroke:none;stroke-width:0.2;stroke-miterlimit:4;stroke-dasharray:none;stroke-opacity:1"
       d="m 5.2635508,8.720765 q -0.718302,0 -1.27124,-0.20671 -0.54777,-0.21187 -0.904338,-0.5736 -0.356567,-0.36691 -0.532267,-0.86817 -0.1757,-0.50126 -0.1757,-1.09037 0,-0.53744 0.211874,-1.02319 0.217041,-0.48576 0.583943,-0.85266 0.377238,-0.37724 0.935344,-0.59945 0.563273,-0.22738 1.240234,-0.22738 0.950846,0 1.5037837,0.36174 0.5529377,0.35656 0.5529377,0.96635 0,0.37207 -0.1963707,0.59944 -0.19637,0.22738 -0.6769607,0.22738 -0.387573,0 -0.651123,-0.18604 -0.258382,-0.18603 -0.258382,-0.48575 0,-0.25322 0.08268,-0.50127 0.08268,-0.24804 0.09819,-0.37723 -0.05685,-0.093 -0.144694,-0.13953 -0.08785,-0.0517 -0.273886,-0.0517 -0.232543,0 -0.423746,0.10852 -0.191203,0.10852 -0.356568,0.38241 -0.160197,0.25838 -0.258382,0.69246 -0.09302,0.43409 -0.09302,1.04387 0,0.91984 0.428914,1.48311 0.434082,0.56327 1.033529,0.56327 0.573608,0 0.909505,-0.25321 0.3410637,-0.25838 0.6046137,-0.72864 l 0.3875727,0.26872 q -0.160197,0.31523 -0.3824047,0.57878 -0.222209,0.25838 -0.5322677,0.45992 -0.325561,0.21187 -0.661458,0.32039 -0.335897,0.10852 -0.780314,0.10852 z" />
    <path
       id="path_r"
       style="font-style:normal;font-variant:normal;font-weight:normal;font-stretch:normal;font-size:27.4347px;line-height:1.25;font-family:gew;-inkscape-font-specification:gew;letter-spacing:0px;word-spacing:0px;fill:#ffd700;fill-opacity:1;stroke:none;stroke-width:0.2;stroke-miterlimit:4;stroke-dasharray:none;stroke-opacity:1"
       d="M 9.377093,9.48426 Q 9.082385,10.35499 8.117884,11.17214 7.153383,12.00268 5.465506,12.83322 L 0,15.579367 V 12.67247 l 5.13061,-2.5586 Q 7.139987,9.12257 7.796383,8.18486 8.45278,7.26055 8.45278,5.65305 V 2.70596 H 0 V 0 h 20.000001 v 6.10851 q 0,3.42934 -1.433356,5.11721 -1.433356,1.68788 -4.326859,1.68788 -1.888814,0 -3.134628,-0.88413 Q 9.859344,11.15874 9.377093,9.48426 Z m 8.399197,-6.7783 h -7.099799 v 3.40255 q 0,1.95579 0.897522,2.94709 0.910917,1.00468 2.665773,1.00468 1.754856,0 2.638982,-1.00468 0.897522,-0.9913 0.897522,-2.94709 z" />
    <path
       id="path_c_right"
       style="font-style:normal;font-variant:normal;font-weight:bold;font-stretch:normal;font-family:Georgia;-inkscape-font-specification:'Georgia Bold';fill:#ffd700;fill-opacity:1;stroke:none;stroke-width:0.2;stroke-miterlimit:4;stroke-dasharray:none;stroke-opacity:1"
       d="m 14.263552,8.720765 q -0.718302,0 -1.27124,-0.20671 -0.54777,-0.21187 -0.904338,-0.5736 -0.356567,-0.36691 -0.532267,-0.86817 -0.1757,-0.50126 -0.1757,-1.09037 0,-0.53744 0.211874,-1.02319 0.217041,-0.48576 0.583943,-0.85266 0.377238,-0.37724 0.935344,-0.59945 0.563273,-0.22738 1.240234,-0.22738 0.950846,0 1.503783,0.36174 0.552938,0.35656 0.552938,0.96635 0,0.37207 -0.196371,0.59944 -0.19637,0.22738 -0.67696,0.22738 -0.387573,0 -0.651123,-0.18604 -0.258382,-0.18603 -0.258382,-0.48575 0,-0.25322 0.08268,-0.50127 0.08268,-0.24804 0.09819,-0.37723 -0.05685,-0.093 -0.144694,-0.13953 -0.08785,-0.0517 -0.273886,-0.0517 -0.232543,0 -0.423746,0.10852 -0.191203,0.10852 -0.356568,0.38241 -0.160197,0.25838 -0.258382,0.69246 -0.09302,0.43409 -0.09302,1.04387 0,0.91984 0.428914,1.48311 0.434082,0.56327 1.033529,0.56327 0.573608,0 0.909505,-0.25321 0.341063,-0.25838 0.604613,-0.72864 l 0.387573,0.26872 q -0.160197,0.31523 -0.382405,0.57878 -0.222209,0.25838 -0.532267,0.45992 -0.325561,0.21187 -0.661458,0.32039 -0.335897,0.10852 -0.780314,0.10852 z" />
  </g>
</svg>
